<?xml version="1.0" encoding="utf-8"?>
<!-- Generator: Adobe Illustrator 28.2.0, SVG Export Plug-In . SVG Version: 6.00 Build 0)  -->
<svg version="1.1" id="Layer_1" xmlns="http://www.w3.org/2000/svg" xmlns:xlink="http://www.w3.org/1999/xlink" x="0px" y="0px"
	 width="222px" height="103.9px" viewBox="0 0 222 103.9" style="enable-background:new 0 0 222 103.9;" xml:space="preserve">
<style type="text/css">
	.st0{clip-path:url(#SVGID_00000120550698964207724510000001294812301632989826_);fill:#008641;}
	.st1{clip-path:url(#SVGID_00000007404938068892833660000011633083325842268312_);}
	.st2{clip-path:url(#SVGID_00000159452455245360621930000002200678051497584795_);fill:#231F20;}
	.st3{clip-path:url(#SVGID_00000160152574241348191050000017697542679317656740_);fill:#FFFFFF;}
	.st4{clip-path:url(#SVGID_00000051349755117889198170000001024563181702177420_);fill:#FFFFFF;}
	.st5{clip-path:url(#SVGID_00000149353332019352279310000015540780861770769067_);fill:#FFFFFF;}
	.st6{clip-path:url(#SVGID_00000119821336607093163470000010555888409401022383_);fill:#FFFFFF;}
	.st7{clip-path:url(#SVGID_00000163759986057040939110000016984247834296852879_);fill:#FFFFFF;}
	.st8{clip-path:url(#SVGID_00000093865280396949135280000013375528672972327829_);fill:#FFFFFF;}
	.st9{clip-path:url(#SVGID_00000150788641413890658820000007450306010905814702_);fill:#FFFFFF;}
	.st10{clip-path:url(#SVGID_00000046335611362143117330000016646523041262555302_);fill:#FFFFFF;}
	.st11{clip-path:url(#SVGID_00000175320053888397970460000014031411195406156674_);fill:#FFFFFF;}
	.st12{clip-path:url(#SVGID_00000117634511842456830260000012026278221894905267_);fill:#FFFFFF;}
	.st13{clip-path:url(#SVGID_00000170271063351495566190000015209582817336240800_);fill:#FFFFFF;}
	.st14{clip-path:url(#SVGID_00000170248413378964947220000002792045208700809632_);fill:#FFFFFF;}
	.st15{clip-path:url(#SVGID_00000054985360945064616460000010747091311663626888_);fill:#FFFFFF;}
	.st16{clip-path:url(#SVGID_00000109731871552623389370000011409042703960818819_);fill:#FFFFFF;}
	.st17{clip-path:url(#SVGID_00000001654022016371471660000009267156349003449489_);fill:#FFFFFF;}
	.st18{clip-path:url(#SVGID_00000157305336801502510230000007396760162168874930_);fill:#FFFFFF;}
	.st19{clip-path:url(#SVGID_00000031190693056614112480000010097811663825679259_);fill:#FFFFFF;}
	.st20{clip-path:url(#SVGID_00000000181816523532928460000007176104348040141189_);fill:#FFFFFF;}
	.st21{clip-path:url(#SVGID_00000146492109373543658800000017925721462927885463_);fill:#FFFFFF;}
	.st22{clip-path:url(#SVGID_00000001643902250045265120000004448409635981449657_);fill:#FFFFFF;}
	.st23{clip-path:url(#SVGID_00000035516627710459257830000002285907203530429361_);fill:#FFFFFF;}
	.st24{clip-path:url(#SVGID_00000145772811465040071230000007559270581009404289_);fill:#FFFFFF;}
	.st25{clip-path:url(#SVGID_00000019653149425704625140000007735860281528375982_);fill:#FFFFFF;}
	.st26{clip-path:url(#SVGID_00000078744479466594692790000002798002895876096408_);fill:#FFFFFF;}
	.st27{clip-path:url(#SVGID_00000104680031574124138380000009995581730215275396_);fill:#FFFFFF;}
	.st28{clip-path:url(#SVGID_00000127746567875236565590000008554063079365113491_);fill:#FFFFFF;}
	.st29{clip-path:url(#SVGID_00000078748073454322030670000009343490949073454258_);fill:#FFFFFF;}
	.st30{clip-path:url(#SVGID_00000181055414759398515720000006680641891108557451_);fill:#FFFFFF;}
	.st31{clip-path:url(#SVGID_00000170270942302574472500000008345391144770009008_);fill:#FFFFFF;}
</style>
<g>
	<g>
		<g>
			<defs>
				<rect id="SVGID_1_" x="3.3" y="2.6" width="215.5" height="70.6"/>
			</defs>
			<clipPath id="SVGID_00000159450997215235104090000013780166414159667898_">
				<use xlink:href="#SVGID_1_"  style="overflow:visible;"/>
			</clipPath>
			
				<rect x="3.3" y="2.8" style="clip-path:url(#SVGID_00000159450997215235104090000013780166414159667898_);fill:#008641;" width="215.5" height="70.4"/>
		</g>
		<g>
			<defs>
				<rect id="SVGID_00000031200629596414828720000017540564560716686252_" x="3.3" y="2.6" width="215.5" height="70.6"/>
			</defs>
			<clipPath id="SVGID_00000172426296919437903470000006860628930249419438_">
				<use xlink:href="#SVGID_00000031200629596414828720000017540564560716686252_"  style="overflow:visible;"/>
			</clipPath>
			<g style="clip-path:url(#SVGID_00000172426296919437903470000006860628930249419438_);">
				<g>
					<defs>
						<rect id="SVGID_00000020375473315253189670000017346793196100932489_" x="3.3" y="2.6" width="215.5" height="70.6"/>
					</defs>
					<clipPath id="SVGID_00000091733938708354114820000007900121379139047572_">
						<use xlink:href="#SVGID_00000020375473315253189670000017346793196100932489_"  style="overflow:visible;"/>
					</clipPath>
					<path style="clip-path:url(#SVGID_00000091733938708354114820000007900121379139047572_);fill:#231F20;" d="M43.8,12.1
						C29.5,12.1,18,23.7,18,37.9s11.5,25.8,25.8,25.8s25.7-11.6,25.7-25.8S58,12.1,43.8,12.1"/>
				</g>
				<g>
					<defs>
						<rect id="SVGID_00000038388440894137394940000007705537413852613805_" x="3.3" y="2.6" width="215.5" height="70.6"/>
					</defs>
					<clipPath id="SVGID_00000165936166976812739650000008797818326215076795_">
						<use xlink:href="#SVGID_00000038388440894137394940000007705537413852613805_"  style="overflow:visible;"/>
					</clipPath>
					<polygon style="clip-path:url(#SVGID_00000165936166976812739650000008797818326215076795_);fill:#FFFFFF;" points="56.6,27.3 
						40.8,43 33.1,35.2 29.4,38.9 40.8,50.3 60.2,30.9 					"/>
				</g>
				<g>
					<defs>
						<rect id="SVGID_00000110428523135880051060000008788948258304106372_" x="3.3" y="2.6" width="215.5" height="70.6"/>
					</defs>
					<clipPath id="SVGID_00000093164236162471024910000014508055885049333902_">
						<use xlink:href="#SVGID_00000110428523135880051060000008788948258304106372_"  style="overflow:visible;"/>
					</clipPath>
					<path style="clip-path:url(#SVGID_00000093164236162471024910000014508055885049333902_);fill:#FFFFFF;" d="M89.5,61.6
						l-1.8-2.8H87v2.8h-2v-8.7h3.4c2.1,0,3.1,1.3,3.1,3c0,1.3-0.6,2.2-1.6,2.6l0,0l2,3.1H89.5z M87,57h0.9c0.9,0,1.4-0.4,1.4-1.2
						c0-0.6-0.5-1.2-1.4-1.2h-1L87,57L87,57z"/>
				</g>
				<g>
					<defs>
						<rect id="SVGID_00000150809168354391659410000013783566691005724089_" x="3.3" y="2.6" width="215.5" height="70.6"/>
					</defs>
					<clipPath id="SVGID_00000144333700592417853990000018310518264049398968_">
						<use xlink:href="#SVGID_00000150809168354391659410000013783566691005724089_"  style="overflow:visible;"/>
					</clipPath>
					<polygon style="clip-path:url(#SVGID_00000144333700592417853990000018310518264049398968_);fill:#FFFFFF;" points="92.9,52.9 
						98.5,52.9 98.5,54.7 94.9,54.7 94.9,56.4 97.8,56.4 97.8,58.2 94.9,58.2 94.9,59.7 98.8,59.7 98.8,61.6 92.9,61.6 					"/>
				</g>
				<g>
					<defs>
						<rect id="SVGID_00000152974435236124661010000015567556273864280239_" x="3.3" y="2.6" width="215.5" height="70.6"/>
					</defs>
					<clipPath id="SVGID_00000116917314638168655080000018360887820237971645_">
						<use xlink:href="#SVGID_00000152974435236124661010000015567556273864280239_"  style="overflow:visible;"/>
					</clipPath>
					<path style="clip-path:url(#SVGID_00000116917314638168655080000018360887820237971645_);fill:#FFFFFF;" d="M99.5,57.2
						c0-2.5,1.6-4.5,4.5-4.5c1.2,0,2.5,0.5,3.5,1.7l-1.5,1.3c-0.4-0.5-1.1-1-2-1c-1.3,0-2.3,0.9-2.3,2.5c0,1.4,0.9,2.5,2.3,2.5
						c0.8,0,1.5-0.4,2-1l1.5,1.3c-0.7,0.9-2,1.7-3.5,1.7C101.6,61.7,99.5,60.1,99.5,57.2"/>
				</g>
				<g>
					<defs>
						<rect id="SVGID_00000176040492438149814050000011495133601660452481_" x="3.3" y="2.6" width="215.5" height="70.6"/>
					</defs>
					<clipPath id="SVGID_00000016059620228298270410000000227403938664756131_">
						<use xlink:href="#SVGID_00000176040492438149814050000011495133601660452481_"  style="overflow:visible;"/>
					</clipPath>
					<path style="clip-path:url(#SVGID_00000016059620228298270410000000227403938664756131_);fill:#FFFFFF;" d="M107.9,57.2
						c0-2.6,1.8-4.5,4.5-4.5c2.6,0,4.5,1.8,4.5,4.5s-1.9,4.5-4.5,4.5S107.9,59.8,107.9,57.2 M114.8,57.2c0-1.5-1-2.6-2.3-2.6
						c-1.4,0-2.3,1.1-2.3,2.6c0,1.4,1,2.6,2.3,2.6S114.8,58.7,114.8,57.2"/>
				</g>
				<g>
					<defs>
						<rect id="SVGID_00000157291571030852453660000006070610366927793829_" x="3.3" y="2.6" width="215.5" height="70.6"/>
					</defs>
					<clipPath id="SVGID_00000124148120340352155630000014947250189343420559_">
						<use xlink:href="#SVGID_00000157291571030852453660000006070610366927793829_"  style="overflow:visible;"/>
					</clipPath>
					<polygon style="clip-path:url(#SVGID_00000124148120340352155630000014947250189343420559_);fill:#FFFFFF;" points="
						127.1,52.9 127.1,61.6 125.1,61.6 125.1,56.8 125,56.8 123.3,60 122,60 120.2,56.8 120.2,56.8 120.2,61.6 118.1,61.6 
						118.1,52.9 120.2,52.9 122.6,57.5 122.6,57.5 125,52.9 					"/>
				</g>
				<g>
					<defs>
						<rect id="SVGID_00000020375361149650294160000006961793227487281793_" x="3.3" y="2.6" width="215.5" height="70.6"/>
					</defs>
					<clipPath id="SVGID_00000136389639541006430060000004735757805367822772_">
						<use xlink:href="#SVGID_00000020375361149650294160000006961793227487281793_"  style="overflow:visible;"/>
					</clipPath>
					<polygon style="clip-path:url(#SVGID_00000136389639541006430060000004735757805367822772_);fill:#FFFFFF;" points="
						137.7,52.9 137.7,61.6 135.7,61.6 135.7,56.8 135.7,56.8 133.9,60 132.6,60 130.8,56.8 130.8,56.8 130.8,61.6 128.8,61.6 
						128.8,52.9 130.8,52.9 133.2,57.5 133.3,57.5 135.7,52.9 					"/>
				</g>
				<g>
					<defs>
						<rect id="SVGID_00000093879900810960774820000008769884073574349441_" x="3.3" y="2.6" width="215.5" height="70.6"/>
					</defs>
					<clipPath id="SVGID_00000019652896824757294050000017303900815125584297_">
						<use xlink:href="#SVGID_00000093879900810960774820000008769884073574349441_"  style="overflow:visible;"/>
					</clipPath>
					<polygon style="clip-path:url(#SVGID_00000019652896824757294050000017303900815125584297_);fill:#FFFFFF;" points="
						139.4,52.9 145.1,52.9 145.1,54.7 141.4,54.7 141.4,56.4 144.3,56.4 144.3,58.2 141.4,58.2 141.4,59.7 145.3,59.7 145.3,61.6 
						139.4,61.6 					"/>
				</g>
				<g>
					<defs>
						<rect id="SVGID_00000078029644986795288980000009060928861049285250_" x="3.3" y="2.6" width="215.5" height="70.6"/>
					</defs>
					<clipPath id="SVGID_00000134236453852199810750000012941041700141431173_">
						<use xlink:href="#SVGID_00000078029644986795288980000009060928861049285250_"  style="overflow:visible;"/>
					</clipPath>
					<polygon style="clip-path:url(#SVGID_00000134236453852199810750000012941041700141431173_);fill:#FFFFFF;" points="
						154.1,52.9 154.1,61.6 152,61.6 148.7,56.3 148.7,56.3 148.7,61.6 146.6,61.6 146.6,52.9 148.7,52.9 152.1,58.2 152.1,52.9 
											"/>
				</g>
				<g>
					<defs>
						<rect id="SVGID_00000124124769947999214430000010174070209972188802_" x="3.3" y="2.6" width="215.5" height="70.6"/>
					</defs>
					<clipPath id="SVGID_00000135670031029331896370000002588856073157687943_">
						<use xlink:href="#SVGID_00000124124769947999214430000010174070209972188802_"  style="overflow:visible;"/>
					</clipPath>
					<path style="clip-path:url(#SVGID_00000135670031029331896370000002588856073157687943_);fill:#FFFFFF;" d="M155.8,52.9h3
						c2.8,0,4.5,1.8,4.5,4.4s-1.7,4.3-4.5,4.3h-3V52.9z M158.7,59.7c1.5,0,2.5-1.1,2.5-2.5c0-1.5-1-2.5-2.3-2.5h-1v5H158.7z"/>
				</g>
				<g>
					<defs>
						<rect id="SVGID_00000081616571930660813650000002833693546003601553_" x="3.3" y="2.6" width="215.5" height="70.6"/>
					</defs>
					<clipPath id="SVGID_00000037684692283023239460000000873711525107019422_">
						<use xlink:href="#SVGID_00000081616571930660813650000002833693546003601553_"  style="overflow:visible;"/>
					</clipPath>
					<polygon style="clip-path:url(#SVGID_00000037684692283023239460000000873711525107019422_);fill:#FFFFFF;" points="
						164.5,52.9 170.2,52.9 170.2,54.7 166.5,54.7 166.5,56.4 169.4,56.4 169.4,58.2 166.5,58.2 166.5,59.7 170.5,59.7 170.5,61.6 
						164.5,61.6 					"/>
				</g>
				<g>
					<defs>
						<rect id="SVGID_00000043431752110757889360000001082289313542442135_" x="3.3" y="2.6" width="215.5" height="70.6"/>
					</defs>
					<clipPath id="SVGID_00000065075585941011642770000006906992184926736060_">
						<use xlink:href="#SVGID_00000043431752110757889360000001082289313542442135_"  style="overflow:visible;"/>
					</clipPath>
					<path style="clip-path:url(#SVGID_00000065075585941011642770000006906992184926736060_);fill:#FFFFFF;" d="M171.8,52.9h3
						c2.8,0,4.5,1.8,4.5,4.4s-1.7,4.3-4.5,4.3h-3V52.9z M174.7,59.7c1.5,0,2.5-1.1,2.5-2.5c0-1.5-1-2.5-2.3-2.5h-1v5H174.7z"/>
				</g>
				<g>
					<defs>
						<rect id="SVGID_00000080175271659963555620000012792644906081910427_" x="3.3" y="2.6" width="215.5" height="70.6"/>
					</defs>
					<clipPath id="SVGID_00000181784821117653928090000013954913017798183608_">
						<use xlink:href="#SVGID_00000080175271659963555620000012792644906081910427_"  style="overflow:visible;"/>
					</clipPath>
					<path style="clip-path:url(#SVGID_00000181784821117653928090000013954913017798183608_);fill:#FFFFFF;" d="M114.7,28.4v-6.2
						h3.7c1.7,0,3.1,1.4,3.1,3.1c0,1.7-1.4,3.1-3.1,3.1C118.4,28.4,114.7,28.4,114.7,28.4z M103.2,34.4c-1.3,1.3-3,2-4.9,2
						c-3.8,0-6.9-3.1-6.9-6.9s3.1-6.9,6.9-6.9c1.9,0,3.6,0.8,4.9,2l4.6-4.6v19L103.2,34.4z M107.9,42.8h6.9v-8.5h2l4.9,8.5h7.9
						l-6-9.8c2.9-1.5,4.8-4.5,4.8-7.9c0-4.9-4-8.9-8.9-8.9h-11.6v3.5c-2.5-2.4-5.8-3.8-9.5-3.8c-7.5,0-13.7,6.1-13.7,13.7
						s6.2,13.7,13.7,13.7c3.7,0,7-1.5,9.5-3.8C107.9,39.5,107.9,42.8,107.9,42.8z"/>
				</g>
				<g>
					<defs>
						<rect id="SVGID_00000180362228644572227390000011010419978638903967_" x="3.3" y="2.6" width="215.5" height="70.6"/>
					</defs>
					<clipPath id="SVGID_00000037688147902583057770000011004675448504772535_">
						<use xlink:href="#SVGID_00000180362228644572227390000011010419978638903967_"  style="overflow:visible;"/>
					</clipPath>
					<path style="clip-path:url(#SVGID_00000037688147902583057770000011004675448504772535_);fill:#FFFFFF;" d="M180.3,41.1
						l-0.5,0.7c0.8,0.7,1.8,1.1,3.1,1.1c1.6,0,2.8-0.9,2.8-2.3c0-1.2-0.6-1.7-2.4-2.3l-0.7-0.2c-1-0.3-1.6-0.7-1.6-1.5
						c0-1,0.9-1.3,1.7-1.3s1.6,0.4,2.2,1l0.5-0.7c-0.8-0.6-1.6-1-2.8-1c-1.4,0-2.6,0.8-2.6,2.2c0,1.1,0.6,1.8,2.2,2.3l0.8,0.3
						c1.2,0.4,1.7,0.6,1.7,1.4c0,1.1-0.9,1.5-1.9,1.5C181.9,42.1,180.9,41.7,180.3,41.1"/>
				</g>
				<g>
					<defs>
						<rect id="SVGID_00000016765335091347309410000018363200385702061452_" x="3.3" y="2.6" width="215.5" height="70.6"/>
					</defs>
					<clipPath id="SVGID_00000134954260961728875210000012671099090873875897_">
						<use xlink:href="#SVGID_00000016765335091347309410000018363200385702061452_"  style="overflow:visible;"/>
					</clipPath>
					<path style="clip-path:url(#SVGID_00000134954260961728875210000012671099090873875897_);fill:#FFFFFF;" d="M179.2,42.4
						l-0.2-0.7c-0.5,0.3-1,0.4-1.5,0.4c-0.8,0-1.2-0.5-1.2-1.4v-5.4h2.9v-0.9h-2.9v-2.9h-0.9v9.1c0,1.4,0.7,2.2,2.1,2.2
						C178,42.9,178.6,42.7,179.2,42.4"/>
				</g>
				<g>
					<defs>
						<rect id="SVGID_00000097479107298358783370000016326326470541730694_" x="3.3" y="2.6" width="215.5" height="70.6"/>
					</defs>
					<clipPath id="SVGID_00000137102368036328232510000006065992133245908366_">
						<use xlink:href="#SVGID_00000097479107298358783370000016326326470541730694_"  style="overflow:visible;"/>
					</clipPath>
					<path style="clip-path:url(#SVGID_00000137102368036328232510000006065992133245908366_);fill:#FFFFFF;" d="M171,42.8v-4.9
						c0.2-1.8,1.7-2.7,3.3-2.5v-0.9c-1.4-0.2-2.7,0.5-3.3,1.7v-1.7h-0.9v8.3C170.1,42.8,171,42.8,171,42.8z"/>
				</g>
				<g>
					<defs>
						<rect id="SVGID_00000183945207750247769150000013188687772188718745_" x="3.3" y="2.6" width="215.5" height="70.6"/>
					</defs>
					<clipPath id="SVGID_00000164493694325273088010000009228457379033311666_">
						<use xlink:href="#SVGID_00000183945207750247769150000013188687772188718745_"  style="overflow:visible;"/>
					</clipPath>
					<path style="clip-path:url(#SVGID_00000164493694325273088010000009228457379033311666_);fill:#FFFFFF;" d="M164.9,42
						c-1.8,0-3.3-1.5-3.3-3.4s1.5-3.4,3.3-3.4c1.9,0,3.4,1.5,3.4,3.4S166.7,42,164.9,42 M164.9,34.4c-2.3,0-4.2,1.9-4.2,4.3
						c0,2.3,1.9,4.3,4.2,4.3s4.3-1.9,4.3-4.3C169.1,36.3,167.2,34.4,164.9,34.4"/>
				</g>
				<g>
					<defs>
						<rect id="SVGID_00000180356703955837734520000012164262611914858897_" x="3.3" y="2.6" width="215.5" height="70.6"/>
					</defs>
					<clipPath id="SVGID_00000108296892327484364620000009147417871398872969_">
						<use xlink:href="#SVGID_00000180356703955837734520000012164262611914858897_"  style="overflow:visible;"/>
					</clipPath>
					<path style="clip-path:url(#SVGID_00000108296892327484364620000009147417871398872969_);fill:#FFFFFF;" d="M155.6,42
						c-1.8,0-3.3-1.5-3.3-3.4s1.5-3.4,3.3-3.4s3.3,1.5,3.3,3.4S157.4,42,155.6,42 M155.6,34.4c-1.4,0-2.6,0.8-3.3,1.9v-1.8h-0.9
						v11.7h0.9V41c0.7,1.2,1.9,1.9,3.4,1.9c2.3,0,4.2-1.9,4.2-4.3C159.8,36.3,157.9,34.4,155.6,34.4"/>
				</g>
				<g>
					<defs>
						<rect id="SVGID_00000174573274405768998880000000111720165467824004_" x="3.3" y="2.6" width="215.5" height="70.6"/>
					</defs>
					<clipPath id="SVGID_00000173118592229792809710000017303650197305908870_">
						<use xlink:href="#SVGID_00000174573274405768998880000000111720165467824004_"  style="overflow:visible;"/>
					</clipPath>
					<path style="clip-path:url(#SVGID_00000173118592229792809710000017303650197305908870_);fill:#FFFFFF;" d="M143.5,38.1
						c0.2-1.7,1.5-2.8,3-2.8s2.8,1.1,2.9,2.8H143.5z M150.3,38.3c0-2.3-1.7-3.9-3.8-3.9c-2.2,0-4,1.7-4,4.2s1.9,4.3,4.2,4.3
						c1.3,0,2.5-0.6,3.3-1.6l-0.6-0.5c-0.6,0.8-1.5,1.3-2.6,1.3c-1.7,0-3.1-1.3-3.2-3.2h6.9v-0.6H150.3z"/>
				</g>
				<g>
					<defs>
						<rect id="SVGID_00000036936270743305921190000014661623875151377797_" x="3.3" y="2.6" width="215.5" height="70.6"/>
					</defs>
					<clipPath id="SVGID_00000114055215819481058670000007075643707293751981_">
						<use xlink:href="#SVGID_00000036936270743305921190000014661623875151377797_"  style="overflow:visible;"/>
					</clipPath>
					<path style="clip-path:url(#SVGID_00000114055215819481058670000007075643707293751981_);fill:#FFFFFF;" d="M135.3,36.9v-5.4
						h3.1c1.9,0,3,1.1,3,2.7c0,1.4-1,2.7-3.1,2.7H135.3z M139.1,37.8c2.1-0.3,3.2-1.8,3.2-3.5c0-2.1-1.4-3.6-4-3.6h-4.1v12.2h1v-5
						h2.7l3.4,5h1.2L139.1,37.8z"/>
				</g>
				<g>
					<defs>
						<rect id="SVGID_00000107550596669382110090000005057781505129492901_" x="3.3" y="2.6" width="215.5" height="70.6"/>
					</defs>
					<clipPath id="SVGID_00000017480243346963138360000005837204579702872723_">
						<use xlink:href="#SVGID_00000107550596669382110090000005057781505129492901_"  style="overflow:visible;"/>
					</clipPath>
					<path style="clip-path:url(#SVGID_00000017480243346963138360000005837204579702872723_);fill:#FFFFFF;" d="M200.7,28.4v-4.9
						c0.2-1.8,1.7-2.7,3.3-2.5v-0.9c-1.4-0.2-2.7,0.5-3.3,1.7v-1.7h-0.9v8.3C199.8,28.4,200.7,28.4,200.7,28.4z"/>
				</g>
				<g>
					<defs>
						<rect id="SVGID_00000129920480527402217610000010045608902698525365_" x="3.3" y="2.6" width="215.5" height="70.6"/>
					</defs>
					<clipPath id="SVGID_00000010999263903727101110000018399806488577706412_">
						<use xlink:href="#SVGID_00000129920480527402217610000010045608902698525365_"  style="overflow:visible;"/>
					</clipPath>
					<path style="clip-path:url(#SVGID_00000010999263903727101110000018399806488577706412_);fill:#FFFFFF;" d="M191.9,23.6
						c0.2-1.7,1.5-2.8,3-2.8s2.8,1.1,2.9,2.8H191.9z M198.8,23.8c0-2.3-1.7-3.9-3.8-3.9c-2.2,0-4,1.7-4,4.2s1.9,4.3,4.2,4.3
						c1.3,0,2.5-0.6,3.3-1.6l-0.6-0.5c-0.6,0.8-1.5,1.3-2.6,1.3c-1.7,0-3.1-1.3-3.2-3.2h6.9v-0.6H198.8z"/>
				</g>
				<g>
					<defs>
						<rect id="SVGID_00000106849452627821876520000016059559041154918272_" x="3.3" y="2.6" width="215.5" height="70.6"/>
					</defs>
					<clipPath id="SVGID_00000167395830411585326060000005567647623224037265_">
						<use xlink:href="#SVGID_00000106849452627821876520000016059559041154918272_"  style="overflow:visible;"/>
					</clipPath>
					<path style="clip-path:url(#SVGID_00000167395830411585326060000005567647623224037265_);fill:#FFFFFF;" d="M178.5,24.1
						c0-2.2,1.1-3.4,2.7-3.4c1.3,0,2.2,0.8,2.2,2.3v5.3h0.9v-4.2c0-2.2,1.1-3.4,2.7-3.4c1.3,0,2.2,0.8,2.2,2.3v5.3h0.9V23
						c0-1.9-1.1-3.1-3-3.1c-1.3,0-2.5,0.8-3,2c-0.4-1.2-1.4-2-2.8-2c-1.2,0-2.3,0.7-2.8,1.8V20h-0.9v8.3h0.9L178.5,24.1L178.5,24.1z
						"/>
				</g>
				<g>
					<defs>
						<rect id="SVGID_00000168815537284339302870000001597948421674901649_" x="3.3" y="2.6" width="215.5" height="70.6"/>
					</defs>
					<clipPath id="SVGID_00000142855551518091170480000002037646288150048641_">
						<use xlink:href="#SVGID_00000168815537284339302870000001597948421674901649_"  style="overflow:visible;"/>
					</clipPath>
					<path style="clip-path:url(#SVGID_00000142855551518091170480000002037646288150048641_);fill:#FFFFFF;" d="M175.3,28.4h0.9
						v-8.3h-0.9v4.2c0,2.2-1.3,3.4-2.9,3.4c-1.3,0-2.2-0.8-2.2-2.3v-5.3h-0.9v5.3c0,1.9,1.1,3.1,3,3.1c1.4,0,2.5-0.7,3-1.8
						L175.3,28.4L175.3,28.4z"/>
				</g>
				<g>
					<defs>
						<rect id="SVGID_00000025408869733008651930000015621743248091107999_" x="3.3" y="2.6" width="215.5" height="70.6"/>
					</defs>
					<clipPath id="SVGID_00000050639257932217713520000010524012091251996553_">
						<use xlink:href="#SVGID_00000025408869733008651930000015621743248091107999_"  style="overflow:visible;"/>
					</clipPath>
					<path style="clip-path:url(#SVGID_00000050639257932217713520000010524012091251996553_);fill:#FFFFFF;" d="M162.8,26.6
						l-0.5,0.7c0.8,0.7,1.8,1.1,3.1,1.1c1.6,0,2.8-0.9,2.8-2.3c0-1.2-0.6-1.7-2.4-2.3l-0.7-0.2c-1-0.3-1.6-0.7-1.6-1.5
						c0-1,0.9-1.3,1.7-1.3s1.6,0.4,2.2,1l0.5-0.7c-0.8-0.6-1.6-1-2.8-1c-1.4,0-2.6,0.8-2.6,2.2c0,1.1,0.6,1.8,2.2,2.3l0.8,0.3
						c1.2,0.4,1.7,0.6,1.7,1.4c0,1.1-0.9,1.5-1.9,1.5C164.4,27.7,163.4,27.2,162.8,26.6"/>
				</g>
				<g>
					<defs>
						<rect id="SVGID_00000022519029374764488330000013362754802143393210_" x="3.3" y="2.6" width="215.5" height="70.6"/>
					</defs>
					<clipPath id="SVGID_00000136380447466304296650000007657404031725180307_">
						<use xlink:href="#SVGID_00000022519029374764488330000013362754802143393210_"  style="overflow:visible;"/>
					</clipPath>
					<path style="clip-path:url(#SVGID_00000136380447466304296650000007657404031725180307_);fill:#FFFFFF;" d="M155.3,24.1
						c0-2.2,1.3-3.4,2.9-3.4c1.3,0,2.2,0.8,2.2,2.3v5.3h0.9V23c0-1.9-1.1-3.1-3-3.1c-1.4,0-2.5,0.7-3,1.8v-1.8h-0.9v8.3h0.9
						L155.3,24.1L155.3,24.1z"/>
				</g>
				<g>
					<defs>
						<rect id="SVGID_00000132804932272930973700000007298475366301973379_" x="3.3" y="2.6" width="215.5" height="70.6"/>
					</defs>
					<clipPath id="SVGID_00000075868288806560309490000012696288136040504988_">
						<use xlink:href="#SVGID_00000132804932272930973700000007298475366301973379_"  style="overflow:visible;"/>
					</clipPath>
					<path style="clip-path:url(#SVGID_00000075868288806560309490000012696288136040504988_);fill:#FFFFFF;" d="M149.1,27.6
						c-1.8,0-3.3-1.5-3.3-3.4c0-1.8,1.5-3.4,3.3-3.4c1.9,0,3.4,1.5,3.4,3.4C152.4,26,150.9,27.6,149.1,27.6 M149.1,19.9
						c-2.3,0-4.2,1.9-4.2,4.3s1.9,4.3,4.2,4.3s4.3-1.9,4.3-4.3S151.4,19.9,149.1,19.9"/>
				</g>
				<g>
					<defs>
						<rect id="SVGID_00000098924799776485642200000010448421883019456412_" x="3.3" y="2.6" width="215.5" height="70.6"/>
					</defs>
					<clipPath id="SVGID_00000050624746354179558530000010596350341465839549_">
						<use xlink:href="#SVGID_00000098924799776485642200000010448421883019456412_"  style="overflow:visible;"/>
					</clipPath>
					<path style="clip-path:url(#SVGID_00000050624746354179558530000010596350341465839549_);fill:#FFFFFF;" d="M143.5,25.5
						c-1,1.2-2.5,2-4.1,2c-2.8,0-5.2-2.3-5.2-5.2s2.3-5.2,5.2-5.2c1.7,0,3.2,0.8,4.1,2l0.7-0.7c-1.1-1.4-2.9-2.3-4.8-2.3
						c-3.4,0-6.2,2.8-6.2,6.2s2.8,6.2,6.2,6.2c1.9,0,3.7-0.9,4.8-2.3L143.5,25.5z"/>
				</g>
				<g>
					<defs>
						<rect id="SVGID_00000155850174126115601840000010123922726787840676_" x="3.3" y="2.6" width="215.5" height="70.6"/>
					</defs>
					<clipPath id="SVGID_00000050633230732059435780000010384580141518089634_">
						<use xlink:href="#SVGID_00000155850174126115601840000010123922726787840676_"  style="overflow:visible;"/>
					</clipPath>
					<path style="clip-path:url(#SVGID_00000050633230732059435780000010384580141518089634_);fill:#FFFFFF;" d="M180,54.2
						c0-0.2,0-0.4,0.1-0.5c0.1-0.2,0.2-0.3,0.3-0.4s0.3-0.2,0.4-0.3c0.2-0.1,0.3-0.1,0.5-0.1s0.3,0,0.5,0.1s0.3,0.2,0.4,0.3
						c0.1,0.1,0.2,0.3,0.3,0.4c0.1,0.2,0.1,0.3,0.1,0.5s0,0.4-0.1,0.5c-0.1,0.2-0.2,0.3-0.3,0.4s-0.3,0.2-0.4,0.3
						c-0.2,0.1-0.3,0.1-0.5,0.1s-0.3,0-0.5-0.1s-0.3-0.2-0.4-0.3c-0.1-0.1-0.2-0.3-0.3-0.4C180,54.5,180,54.4,180,54.2 M180.2,54.2
						c0,0.2,0,0.3,0.1,0.4s0.1,0.3,0.2,0.3s0.2,0.2,0.3,0.2c0.1,0.1,0.3,0.1,0.4,0.1c0.1,0,0.3,0,0.4-0.1c0.1-0.1,0.2-0.1,0.3-0.2
						s0.2-0.2,0.2-0.3c0.1-0.1,0.1-0.3,0.1-0.4c0-0.2,0-0.3-0.1-0.4s-0.1-0.3-0.2-0.4c-0.1-0.1-0.2-0.2-0.3-0.2
						c-0.1-0.1-0.3-0.1-0.4-0.1c-0.1,0-0.3,0-0.4,0.1c-0.1,0.1-0.2,0.1-0.3,0.2s-0.2,0.2-0.2,0.4C180.3,53.9,180.2,54,180.2,54.2
						 M180.8,53.4h0.6c0.4,0,0.5,0.1,0.5,0.4c0,0.1,0,0.2-0.1,0.3s-0.2,0.1-0.3,0.1l0.4,0.7h-0.2l-0.4-0.7H181v0.7h-0.2V53.4z
						 M181,54.1h0.2c0.1,0,0.1,0,0.1,0h0.1c0,0,0.1,0,0.1-0.1v-0.1c0-0.1,0-0.1,0-0.1s0-0.1-0.1-0.1h-0.1h-0.1H181V54.1z"/>
				</g>
			</g>
		</g>
	</g>
</g>
</svg>
